<svg width="276" height="348" viewBox="0 0 276 348" fill="none" xmlns="http://www.w3.org/2000/svg">
    <path d="M224.429 336.286L207.328 258.306L176.326 180.384L156.458 138.078" stroke="#254C56" stroke-width="7"
        stroke-linecap="round" />
    <path
        d="M156.515 230.084C172.236 236.855 199.425 239.024 199.425 239.024C199.425 239.024 196.256 228.419 192.595 222.453C184.324 208.972 174.523 205.033 160.446 197.822C140.928 187.825 105.67 185.46 105.67 185.46C105.67 185.46 132.251 219.633 156.515 230.084Z"
        fill="#254C56" />
    <path
        d="M141.682 120.484C153.813 135.002 165.108 162.141 165.108 162.141C165.108 162.141 153.282 161.18 146.002 158.734C129.551 153.207 122.274 144.096 110.247 131.341C93.5716 113.655 79.3804 78.3665 79.3804 78.3665C79.3804 78.3665 122.96 98.0763 141.682 120.484Z"
        fill="#254C56" />
    <path
        d="M192.736 276.608C205.172 286.999 218.542 309.447 218.542 309.447C218.542 309.447 208.152 311.688 201.512 311.328C186.508 310.515 178.995 303.905 166.88 295.139C150.083 282.984 143.433 251.903 143.433 251.903C143.433 251.903 173.541 260.57 192.736 276.608Z"
        fill="#254C56" />
    <path
        d="M171.258 96.5459C169.57 115.39 158.366 142.566 158.366 142.566C158.366 142.566 150.684 133.525 147.265 126.647C139.541 111.106 133.173 94.0654 133.688 76.5416C134.403 52.2445 143.272 19.6369 143.272 19.6369C143.272 19.6369 173.864 67.4628 171.258 96.5459Z"
        fill="#254C56" />
    <path
        d="M242.994 257.819C234.378 267.655 214.232 277.769 214.232 277.769C214.232 277.769 210.89 269.106 210.483 263.643C209.564 251.297 210.406 238.736 217.491 229.099C227.313 215.737 245.852 192.08 245.852 192.08C245.852 192.08 256.292 242.638 242.994 257.819Z"
        fill="#254C56" />
    <path
        d="M210.062 174.021C205.272 191.432 190.947 214.925 190.947 214.925C190.947 214.925 186.061 205.006 184.397 197.908C180.635 181.867 178.289 164.667 181.85 148.281C186.789 125.562 200.109 96.5299 200.109 96.5299C200.109 96.5299 217.454 147.149 210.062 174.021Z"
        fill="#254C56" />
</svg>
